<?xml version="1.0" encoding="iso-8859-1"?>
<svg version="1.1" id="Capa_1" xmlns="http://www.w3.org/2000/svg" xmlns:xlink="http://www.w3.org/1999/xlink" x="0px" y="0px"
	 viewBox="0 0 490.667 490.667" xml:space="preserve">
<path style="fill:#ccc; " stroke="#ddd" stroke-width="4" d="M352,234.667h-96v-96c0-5.891-4.776-10.667-10.667-10.667c-5.891,0-10.667,4.776-10.667,10.667v96
	h-96c-29.455,0-53.333,23.878-53.333,53.333v64c0,5.891,4.776,10.667,10.667,10.667c5.891,0,10.667-4.776,10.667-10.667v-64
	c0-17.673,14.327-32,32-32H352c17.673,0,32,14.327,32,32v64c0,5.891,4.776,10.667,10.667,10.667c5.891,0,10.667-4.776,10.667-10.667
	v-64C405.333,258.545,381.455,234.667,352,234.667z"/>
<path style="fill:#f4e0a4;" d="M181.333,0h128C315.224,0,320,4.776,320,10.667v128c0,5.891-4.776,10.667-10.667,10.667h-128
	c-5.891,0-10.667-4.776-10.667-10.667v-128C170.667,4.776,175.442,0,181.333,0z"/>
<g>
	<path style="fill:#7cd47b;" d="M32,341.333h128c5.891,0,10.667,4.776,10.667,10.667v128c0,5.891-4.776,10.667-10.667,10.667H32
		c-5.891,0-10.667-4.776-10.667-10.667V352C21.333,346.109,26.109,341.333,32,341.333z"/>
	<path style="fill:#Fe8A7A;" d="M330.667,341.333h128c5.891,0,10.667,4.776,10.667,10.667v128c0,5.891-4.776,10.667-10.667,10.667
		h-128c-5.891,0-10.667-4.776-10.667-10.667V352C320,346.109,324.776,341.333,330.667,341.333z"/>
</g>
</svg>
